HIERARCHY
ROOT simHips
{
  OFFSET -170.184 99.7213 129.156
  CHANNELS 6 Xposition Yposition Zposition Zrotation Xrotation Yrotation
  JOINT simSpine
  {
    OFFSET -0.000355721 21.3001 -0.016921
    CHANNELS 3 Zrotation Xrotation Yrotation
    JOINT simLeftArm
    {
      OFFSET 13.5181 21.3012 0
      CHANNELS 3 Zrotation Xrotation Yrotation
      JOINT simLeftForeArm
      {
        OFFSET 24.5783 0 0
        CHANNELS 3 Zrotation Xrotation Yrotation
        JOINT simLeftHand
        {
          OFFSET 24.5783 0 0
          CHANNELS 3 Zrotation Xrotation Yrotation
          End Site
          {
            OFFSET 7.32568 1.52588e-05 0.0169305
          }
        }
      }
    }
    JOINT simHead
    {
      OFFSET 0 27.4458 -0.00489235
      CHANNELS 3 Zrotation Xrotation Yrotation
      End Site
      {
        OFFSET 0 0 0
      }
    }
    JOINT simRightArm
    {
      OFFSET -13.5174 21.3012 0
      CHANNELS 3 Zrotation Xrotation Yrotation
      JOINT simRightForeArm
      {
        OFFSET -24.5783 0 0
        CHANNELS 3 Zrotation Xrotation Yrotation
        JOINT simRightHand
        {
          OFFSET -24.5783 0 0
          CHANNELS 3 Zrotation Xrotation Yrotation
          End Site
          {
            OFFSET -7.32568 1.52588e-05 0.0169305
          }
        }
      }
    }
  }
  JOINT simRightUpLeg
  {
    OFFSET -8.44614 -9.41038 0.835684
    CHANNELS 3 Zrotation Xrotation Yrotation
    JOINT simRightLeg
    {
      OFFSET 0 -40.9639 0
      CHANNELS 3 Zrotation Xrotation Yrotation
      JOINT simRightFoot
      {
        OFFSET 0 -40.9639 0
        CHANNELS 3 Zrotation Xrotation Yrotation
        End Site
        {
          OFFSET 0.50614 -9.67405 14.6709
        }
      }
    }
  }
  JOINT simLeftUpLeg
  {
    OFFSET 8.44614 -9.41038 0.835684
    CHANNELS 3 Zrotation Xrotation Yrotation
    JOINT simLeftLeg
    {
      OFFSET 0 -40.9639 0
      CHANNELS 3 Zrotation Xrotation Yrotation
      JOINT simLeftFoot
      {
        OFFSET 0 -40.9639 0
        CHANNELS 3 Zrotation Xrotation Yrotation
        End Site
        {
          OFFSET -0.50614 -9.67405 14.6709
        }
      }
    }
  }
}
MOTION
Frames:	25
Frame Time:	0.0333333
-168.037 99.4623 131.521 -1.0154 1.90442 -2.10852 0.647572 -1.66614 1.43243 13.0835 -13.3031 3.75118 -2.20245 -0.234809 3.7359e-05 -0.113956 1.27739 0.803825 -0.553801 -1.3479 -4.14409 -8.38338 -8.82422 -3.93852 1.26886 0.0440323 -1.91431e-05 0.468866 -4.15164 -1.63328 5.00034 -0.656719 1.71038 0.112673 0.405942 0.115087 -3.55435 -2.49304 0.227257 -2.82372 -1.24697 0.629608 0.568454 2.54572 0.00309965 3.91021 -4.06477 1.77777 
-168.082 99.4628 131.585 -1.00257 1.91689 -1.99879 0.608271 -1.71683 1.32121 13.2173 -13.2832 3.72742 -2.29502 -0.234809 3.7359e-05 -0.170122 1.33747 0.795211 -0.496267 -1.31301 -4.15357 -8.25982 -8.95388 -3.96704 1.16365 0.0440323 -1.91431e-05 0.444922 -4.05898 -1.63309 5.01356 -0.640017 1.61735 0.127775 0.443063 0.115088 -3.7437 -2.49044 0.241794 -2.81957 -1.23676 0.576125 0.569771 2.57255 0.00309971 3.90928 -4.08282 1.75694 
-168.12 99.4634 131.658 -0.979075 1.96412 -1.89787 0.583088 -1.85194 1.23835 13.3014 -13.2216 3.62538 -2.40298 -0.234809 3.7359e-05 -0.193007 1.37524 0.776997 -0.419045 -1.19318 -4.11527 -8.13045 -8.94515 -3.99133 1.07312 0.0440323 -1.91431e-05 0.436204 -4.15542 -1.62625 5.01654 -0.625078 1.55524 0.121782 0.412249 0.115088 -3.73141 -2.55585 0.16804 -2.79794 -1.22565 0.574586 0.52221 2.5324 0.00309962 3.90587 -4.09745 1.67584 
-168.148 99.4599 131.722 -0.965113 1.97093 -1.78198 0.584294 -1.91115 1.17663 13.2706 -13.2225 3.55012 -2.39601 -0.234412 3.7359e-05 -0.311936 1.43123 0.758668 -0.381267 -1.18243 -4.101 -8.06032 -8.98175 -4.02496 1.05131 0.0439894 -1.91431e-05 0.421962 -4.04376 -1.64435 5.02202 -0.568291 1.49817 0.109163 0.372216 0.115087 -3.72862 -2.60859 0.116617 -2.82279 -1.21589 0.250326 0.568551 2.57439 0.00309972 3.8864 -4.12746 1.8555 
-168.178 99.455 131.777 -0.941606 1.93552 -1.61413 0.580316 -1.95217 1.09266 13.1114 -13.1599 3.44009 -2.27139 -0.225228 3.73589e-05 -0.248584 1.48387 0.7824 -0.424185 -1.15614 -4.18642 -7.9994 -8.9154 -4.09522 1.03269 0.0440558 -1.91431e-05 0.457075 -4.08399 -1.56573 5.01186 -0.49312 1.39835 0.107224 0.391352 0.115087 -3.81305 -2.675 0.065305 -2.81914 -1.09273 0.070101 0.519347 2.46746 0.00309946 3.91559 -4.07523 1.8919 
-168.22 99.4482 131.822 -0.899117 1.84807 -1.4044 0.526149 -1.92876 0.960152 12.9408 -13.0504 3.33845 -2.14214 -0.215344 3.73589e-05 -0.157133 1.52663 0.787636 -0.441987 -1.09767 -4.29348 -7.89367 -8.85627 -4.12581 1.01051 0.0442202 -1.91431e-05 0.492809 -4.11295 -1.59512 4.9829 -0.387553 1.28824 0.127563 0.437246 0.115088 -3.80974 -2.80979 -0.0783139 -2.83575 -1.01412 -0.112791 0.50671 2.5274 0.00309961 3.89641 -4.12179 1.8521 
-168.234 99.44 131.865 -0.887745 1.80184 -1.2924 0.555426 -1.98049 0.933239 12.7156 -12.9377 3.16631 -2.11017 -0.212892 3.73589e-05 -0.147547 1.52114 0.677963 -0.516668 -0.955563 -4.36925 -7.82048 -8.77845 -4.14458 0.989334 0.0444713 -1.91431e-05 0.508851 -4.14445 -1.58528 4.98307 -0.312722 1.23532 0.127178 0.452553 0.115088 -3.87353 -2.84601 -0.169492 -2.85426 -0.938788 0.128653 0.542364 2.52201 0.00309959 3.82312 -4.15688 1.52776 
-168.25 99.4353 131.891 -0.872692 1.73892 -1.22814 0.57094 -1.99116 0.897799 12.5306 -12.8324 3.06625 -2.1389 -0.215142 3.73589e-05 -0.296107 1.63712 0.60637 -0.564271 -0.829423 -4.29386 -7.7624 -8.73962 -4.07425 1.00482 0.0447977 -1.91431e-05 0.536673 -4.05996 -1.50492 4.97259 -0.209555 1.18665 0.124291 0.420412 0.115088 -3.88723 -2.86 -0.173576 -2.86043 -0.853065 0.139149 0.538559 2.51882 0.00309959 3.79732 -4.17424 1.4825 
-168.278 99.4355 131.901 -0.862612 1.67623 -1.16683 0.569925 -1.99168 0.836747 12.4232 -12.7682 2.99558 -2.23006 -0.22209 3.73589e-05 -0.462905 1.8419 0.638922 -0.621305 -0.702572 -4.24853 -7.71082 -8.69369 -3.96473 1.01191 0.0451883 -1.91431e-05 0.619441 -3.92393 -1.4406 4.981 -0.11354 1.15565 0.107947 0.395439 0.115087 -3.89246 -2.85563 -0.176214 -2.88284 -0.795919 -0.136139 0.580589 2.56068 0.00309969 3.78554 -4.19574 1.68771 
-168.325 99.435 131.898 -0.857555 1.66123 -1.11253 0.537344 -1.99128 0.780428 12.3966 -12.6978 2.93565 -2.35439 -0.231349 3.7359e-05 -0.589404 1.82412 0.710109 -0.601326 -0.670079 -4.14881 -7.63567 -8.6403 -3.87127 0.991026 0.0456316 -1.91431e-05 0.625159 -3.88796 -1.4541 5.00756 -0.121303 1.12039 0.123094 0.413162 0.115088 -3.86664 -2.87089 -0.256295 -2.81378 -0.79194 0.0285331 0.524129 2.5681 0.0030997 3.72158 -4.22822 1.45321 
-168.345 99.4335 131.9 -0.843725 1.61687 -1.1548 0.529488 -1.99036 0.803871 12.3551 -12.673 2.9599 -2.40588 -0.235044 3.7359e-05 -0.658375 1.85048 0.665615 -0.641805 -0.713957 -4.04888 -7.60082 -8.51855 -3.80444 0.984474 0.0461163 -1.91431e-05 0.581761 -3.85914 -1.40663 5.0094 -0.0412539 1.16635 0.10214 0.362982 0.115087 -3.85011 -2.86371 -0.260766 -2.85358 -0.713291 0.0302091 0.579737 2.51806 0.00309958 3.70462 -4.20142 1.52879 
-168.391 99.4328 131.877 -0.839474 1.61127 -1.15622 0.491792 -1.98973 0.808752 12.389 -12.6388 2.98475 -2.45932 -0.236679 3.7359e-05 -0.604284 1.83976 0.651675 -0.607747 -0.74389 -3.97342 -7.58113 -8.4695 -3.78656 1.03351 0.0466312 -1.91431e-05 0.59808 -3.84961 -1.39456 5.02578 -0.0578256 1.16902 0.11203 0.403204 0.115087 -3.93314 -2.86002 -0.203637 -2.80782 -0.722962 -0.0262792 0.560894 2.51551 0.00309958 3.66214 -4.19541 1.53063 
-168.428 99.432 131.854 -0.815551 1.61705 -1.20026 0.434294 -1.99009 0.856927 12.4506 -12.6331 3.01153 -2.46208 -0.237946 3.7359e-05 -0.649289 1.91277 0.682419 -0.568004 -0.772022 -3.92422 -7.56152 -8.40906 -3.80423 1.06944 0.047165 -1.91431e-05 0.643123 -4.00681 -1.46123 5.03491 -0.0550328 1.15304 0.0871085 0.34644 0.115087 -3.89661 -2.84838 -0.162131 -2.80475 -0.745858 -0.227354 0.515898 2.52099 0.00309959 3.73953 -4.14342 1.79485 
-168.464 99.4307 131.83 -0.800224 1.6133 -1.21773 0.387625 -1.99275 0.902312 12.5046 -12.5501 3.00543 -2.44659 -0.238865 3.7359e-05 -0.625542 1.83533 0.677696 -0.534936 -0.765185 -3.91852 -7.59605 -8.39714 -3.86246 1.10277 0.0477063 -1.91431e-05 0.726326 -4.02339 -1.40669 5.03221 -0.105186 1.17544 0.121408 0.409979 0.115088 -3.89374 -2.88792 -0.190663 -2.81271 -0.777461 -0.000173835 0.56207 2.56229 0.00309969 3.67164 -4.14169 1.60788 
-168.514 99.4299 131.8 -0.780285 1.59214 -1.16774 0.325396 -1.96668 0.870252 12.5721 -12.5937 2.99039 -2.40952 -0.239453 3.7359e-05 -0.574794 1.79062 0.683305 -0.5315 -0.718631 -3.92261 -7.64094 -8.4832 -3.9005 1.10689 0.0482438 -1.91431e-05 0.725219 -3.94075 -1.36811 5.04729 -0.0718567 1.17388 0.104856 0.375575 0.115087 -3.98678 -2.84328 -0.205406 -2.78679 -0.741692 -0.0759965 0.527903 2.48626 0.00309951 3.67097 -4.06855 1.61208 
-168.551 99.4285 131.754 -0.762489 1.5231 -1.09649 0.302354 -1.8594 0.806777 12.5659 -12.6201 2.98179 -2.37756 -0.23973 3.7359e-05 -0.487168 1.80052 0.688898 -0.651952 -0.682425 -3.8815 -7.73626 -8.65417 -3.89508 1.08743 0.0487662 -1.91431e-05 0.723293 -4.00836 -1.38726 5.05675 -0.0286749 1.09812 0.0929142 0.373733 0.115087 -3.98693 -2.83675 -0.210676 -2.79479 -0.713995 -0.118458 0.562954 2.51491 0.00309958 3.63808 -4.04511 1.57688 
-168.578 99.4277 131.715 -0.737208 1.47314 -1.03708 0.295641 -1.86918 0.796665 12.5071 -12.5513 2.84159 -2.38931 -0.239713 3.7359e-05 -0.476032 1.79376 0.747646 -0.725676 -0.57677 -3.81309 -7.79927 -8.61187 -3.94128 1.02357 0.0492623 -1.91431e-05 0.636 -3.90638 -1.35936 5.04596 0.0126847 1.08212 0.0894807 0.350071 0.115087 -3.98068 -2.82242 -0.254394 -2.80257 -0.668106 -0.351224 0.536752 2.47384 0.00309948 3.6691 -3.99708 1.75572 
-168.608 99.4268 131.684 -0.734833 1.41181 -0.997105 0.306411 -1.85995 0.770618 12.4566 -12.3563 2.74266 -2.41201 -0.239422 3.7359e-05 -0.620475 1.7972 0.661214 -0.786035 -0.428467 -3.81695 -7.88477 -8.54654 -3.92132 1.01014 0.0497207 -1.91431e-05 0.649936 -3.90462 -1.34898 5.05872 0.0404857 1.05413 0.107528 0.389909 0.115087 -4.0305 -2.81922 -0.270894 -2.77582 -0.63496 -0.0850543 0.534549 2.49055 0.00309952 3.55548 -4.02483 1.46591 
-168.633 99.4259 131.652 -0.73495 1.32544 -0.987699 0.315242 -1.82002 0.74587 12.4057 -12.2349 2.64375 -2.42678 -0.238875 3.7359e-05 -0.624268 1.80985 0.613599 -0.794392 -0.219022 -3.74242 -7.99643 -8.54433 -3.81527 1.05568 0.0501301 -1.91431e-05 0.596751 -3.8447 -1.34394 5.07785 0.152503 1.01914 0.0784286 0.318169 0.115086 -4.03494 -2.76904 -0.24062 -2.75295 -0.570344 -0.0985347 0.517253 2.50745 0.00309956 3.51048 -4.04534 1.4684 
-168.657 99.4289 131.607 -0.733919 1.26068 -1.03309 0.324977 -1.76082 0.778912 12.3448 -12.1937 2.6103 -2.3852 -0.238091 3.7359e-05 -0.614611 1.80957 0.587417 -0.736895 -0.0660191 -3.64008 -8.04184 -8.60281 -3.72039 1.0263 0.0504791 -1.91431e-05 0.666934 -3.84935 -1.30866 5.08672 0.162551 1.08045 0.100963 0.377335 0.115087 -4.04372 -2.75358 -0.252817 -2.75121 -0.521258 -0.273518 0.53934 2.50707 0.00309956 3.52521 -3.99681 1.71842 
-168.702 99.4356 131.557 -0.731713 1.20768 -1.05742 0.276135 -1.67751 0.753754 12.3208 -12.1966 2.60956 -2.35138 -0.237088 3.7359e-05 -0.659666 1.93268 0.615946 -0.616627 -0.0191047 -3.61794 -8.03812 -8.69608 -3.60923 1.02128 0.0507566 -1.91431e-05 0.678497 -3.83115 -1.18764 5.11059 0.187616 1.09351 0.109718 0.375335 0.114206 -4.0674 -2.68773 -0.221048 -2.71466 -0.492828 -0.0308325 0.534652 2.49823 0.00309954 3.47968 -3.98614 1.49792 
-168.745 99.4379 131.504 -0.711442 1.14799 -1.08665 0.210697 -1.60048 0.73684 12.3178 -12.1298 2.61031 -2.36947 -0.235884 3.7359e-05 -0.683459 1.89447 0.581771 -0.504203 -0.0585966 -3.57628 -8.06835 -8.66744 -3.49282 1.06722 0.0509511 -1.91431e-05 0.745247 -3.71915 -1.10069 5.12295 0.234703 1.08252 0.0928537 0.331803 0.113338 -4.04643 -2.64089 -0.203737 -2.7182 -0.488166 -0.0019001 0.564202 2.55961 0.00309968 3.47428 -3.98984 1.47529 
-168.778 99.44 131.455 -0.703462 1.11215 -1.13735 0.168276 -1.5581 0.743837 12.3075 -12.0428 2.57062 -2.39777 -0.234498 3.7359e-05 -0.643536 1.87651 0.592247 -0.44613 -0.106014 -3.54165 -8.13738 -8.73207 -3.36256 1.13811 0.0510515 -1.91431e-05 0.696642 -3.65574 -1.07558 5.13124 0.226602 1.10738 0.0998588 0.358533 0.112473 -3.99339 -2.64686 -0.184566 -2.70876 -0.476751 -0.0402088 0.564134 2.55518 0.00309967 3.46884 -3.94792 1.57857 
-168.819 99.4469 131.4 -0.68058 1.12203 -1.16852 0.111661 -1.56023 0.719269 12.2243 -12.1206 2.534 -2.35854 -0.231603 3.7359e-05 -0.573768 1.95749 0.562128 -0.437482 -0.109419 -3.50452 -8.14872 -8.73221 -3.28154 1.11545 0.0510462 -1.91431e-05 0.728335 -3.70578 -1.09234 5.12925 0.159162 1.13859 0.110913 0.397265 0.111603 -3.98608 -2.62981 -0.182954 -2.70705 -0.504902 0.0165243 0.563789 2.51156 0.00309957 3.50457 -3.85998 1.54806 
-168.87 99.4554 131.345 -0.65894 1.13145 -1.15942 0.0412003 -1.53675 0.676014 12.1353 -12.3289 2.50566 -2.26961 -0.22508 3.73589e-05 -0.522239 1.95524 0.620714 -0.458881 -0.0467139 -3.51385 -8.19615 -8.80875 -3.23333 1.11138 0.0509242 -1.91431e-05 0.795223 -3.68747 -1.11785 5.1334 0.0892192 1.12377 0.13015 0.437248 0.110715 -3.97122 -2.61254 -0.175468 -2.70396 -0.532812 0.0353259 0.56278 2.46941 0.00309947 3.51498 -3.80215 1.52994 
